<svg width="48" height="48" fill="none" xmlns="http://www.w3.org/2000/svg"><path d="M24 48c13.2548 0 24-10.7452 24-24S37.2548 0 24 0 0 10.7452 0 24s10.7452 24 24 24z" fill="url(#paint0_linear)"/><path d="M8.9382 25.174c2.8056-1.5454 5.9374-2.8352 8.8636-4.1316 5.0342-2.1234 10.0884-4.21 15.1936-6.1526.9933-.331 2.778-.6547 2.953.8173-.0958 2.0836-.49 4.155-.7604 6.2264-.6863 4.5552-1.4795 9.0948-2.253 13.635-.2665 1.5123-2.161 2.2952-3.3732 1.3274-2.9132-1.9678-5.8488-3.9164-8.7248-5.9298-.9421-.9573-.0685-2.332.7729-3.0156 2.3994-2.3646 4.944-4.3736 7.218-6.8604.6134-1.4813-1.199-.2329-1.7968.1496-3.2848 2.2636-6.4892 4.6654-9.9524 6.6548-1.769.9738-3.8308.1416-5.599-.4018-1.5854-.6564-3.9086-1.3177-2.5416-2.3186l.0001-.0001z" fill="#fff"/><defs><linearGradient id="paint0_linear" x1="18.0028" y1="2.0016" x2="6.0028" y2="30" gradientUnits="userSpaceOnUse"><stop stop-color="#37AEE2"/><stop offset="1" stop-color="#1E96C8"/></linearGradient></defs></svg>