<svg viewBox="0 0 32 32" xmlns="http://www.w3.org/2000/svg"><defs><style>.cls-2{fill:#0593ff}.cls-3{fill:#0e6ae0}</style></defs><g id="Browser"><rect height="24" rx="4" ry="4" width="28" x="2" y="4" fill="#d8e1ef"/><path class="cls-2" d="M30 8v2H2V8a4 4 0 014-4h20a4 4 0 014 4zM24 16H8a1 1 0 010-2h16a1 1 0 010 2zM24 20H8a1 1 0 010-2h16a1 1 0 010 2zM15 24H8a1 1 0 010-2h7a1 1 0 010 2z"/><circle class="cls-3" cx="13" cy="7" r="1"/><circle class="cls-3" cx="10" cy="7" r="1"/><circle class="cls-3" cx="7" cy="7" r="1"/></g></svg>